<svg xmlns="http://www.w3.org/2000/svg" viewBox="0 0 100 100"><rect width="100" height="100" rx="20" fill="#634A70"/><path d="M59.41,56.46 L58.56,55.18 L57.70,54.33 L55.58,52.77 L55.15,52.62 L54.44,52.06 L53.87,51.77 L53.59,51.77 L53.31,51.49 L53.02,51.49 L52.60,51.21 L52.31,51.21 L51.89,50.92 L51.60,50.92 L50.61,50.50 L50.19,50.50 L49.48,50.21 L48.91,50.21 L48.77,50.07 L46.64,49.93 L46.50,49.79 L43.38,49.79 L43.23,49.93 L41.96,49.93 L41.81,50.07 L40.11,50.21 L39.97,50.35 L38.69,50.50 L38.55,50.64 L36.42,51.06 L35.86,51.35 L35.43,51.35 L35.29,51.49 L32.03,52.48 L31.60,52.77 L30.89,52.91 L29.76,53.48 L28.34,53.90 L28.05,54.19 L27.63,54.19 L27.20,54.47 L26.92,54.47 L26.49,54.75 L24.65,55.32 L24.22,55.60 L23.94,55.60 L22.09,56.31 L21.67,56.31 L21.10,56.60 L19.97,56.74 L19.82,56.88 L19.26,56.88 L19.11,57.02 L17.98,57.02 L17.84,57.16 L15.00,57.16 L15.00,57.31 L15.99,58.16 L16.42,58.30 L18.12,59.43 L18.55,59.43 L18.69,59.58 L21.38,59.43 L21.53,59.29 L22.09,59.29 L22.24,59.15 L23.37,59.01 L24.36,58.58 L24.79,58.58 L24.93,58.44 L26.49,58.02 L26.92,57.73 L27.63,57.59 L28.05,57.31 L28.34,57.31 L28.76,57.02 L29.76,56.74 L31.17,56.03 L31.88,55.89 L32.31,55.60 L32.59,55.60 L33.02,55.32 L34.01,55.04 L34.72,54.61 L36.71,54.04 L37.13,53.76 L37.98,53.62 L38.41,53.33 L39.40,53.19 L39.97,52.91 L41.96,52.62 L42.10,52.48 L44.08,52.34 L44.23,52.20 L48.91,52.20 L49.05,52.34 L50.19,52.34 L50.33,52.48 L50.89,52.48 L51.04,52.62 L51.60,52.62 L51.75,52.77 L52.74,52.91 L52.88,53.05 L54.02,53.33 L54.44,53.62 L54.73,53.62 L55.43,54.04 L55.72,54.04 L56.00,54.33 L57.00,54.75 L57.85,55.32 L59.41,56.60 Z M67.21,26.38 L68.20,27.37 L68.20,27.51 L69.34,28.79 L69.62,29.50 L69.62,29.92 L69.76,30.07 L69.76,30.92 L69.91,31.06 L70.05,31.91 L71.18,33.19 L76.01,35.88 L76.29,35.88 L76.43,36.03 L76.86,36.03 L77.00,35.88 L77.00,35.17 L76.72,34.46 L75.44,33.05 L75.44,32.90 L73.88,31.34 L73.31,30.49 L73.31,30.21 L73.17,30.07 L73.17,29.36 L73.03,29.22 L73.03,25.81 L72.89,25.67 L72.32,26.09 L71.47,26.24 L71.32,26.38 L70.76,26.38 L70.62,26.52 L68.06,26.52 L67.92,26.38 Z M66.22,19.71 L65.93,19.71 L64.94,19.28 L64.51,19.28 L64.37,19.14 L63.66,19.14 L63.52,19.00 L62.10,19.00 L61.96,19.14 L61.25,19.14 L61.11,19.28 L60.40,19.43 L59.27,19.99 L58.27,20.70 L57.42,21.55 L56.43,22.97 L55.58,24.82 L55.58,25.10 L55.29,25.67 L55.29,26.09 L55.15,26.24 L55.01,27.94 L54.87,28.08 L54.87,30.63 L55.01,30.78 L55.01,31.77 L55.15,31.91 L55.29,33.19 L55.72,34.18 L55.72,34.61 L55.86,34.75 L56.00,35.46 L56.29,35.88 L56.43,36.59 L57.28,38.30 L57.28,38.58 L59.69,43.26 L59.97,43.54 L60.68,44.96 L60.97,45.25 L61.11,45.67 L62.67,48.08 L63.10,49.08 L63.81,50.07 L65.79,54.04 L65.93,54.75 L66.22,55.18 L66.22,55.46 L66.93,57.31 L66.93,57.73 L67.07,57.87 L67.07,58.30 L67.35,59.01 L67.35,59.58 L67.49,59.72 L67.49,60.43 L67.64,60.57 L67.64,62.13 L67.78,62.27 L67.64,64.54 L67.49,64.68 L67.49,65.25 L67.35,65.39 L67.35,65.82 L67.21,65.96 L67.21,66.39 L66.93,66.81 L66.93,67.10 L66.64,67.38 L66.22,68.37 L65.51,69.37 L63.81,71.07 L62.10,72.20 L61.39,72.49 L61.11,72.77 L60.54,72.91 L60.12,73.20 L59.83,73.20 L59.12,73.62 L58.84,73.62 L57.85,74.05 L55.72,74.47 L55.58,74.62 L54.87,74.62 L54.73,74.76 L54.16,74.76 L54.02,74.90 L53.02,74.90 L52.88,75.04 L47.63,75.04 L47.49,74.90 L45.50,74.76 L45.36,74.62 L44.79,74.62 L44.65,74.47 L44.08,74.47 L43.94,74.33 L42.38,74.05 L41.81,73.76 L41.39,73.76 L41.25,73.62 L39.69,73.20 L39.26,72.91 L38.55,72.77 L38.13,72.49 L37.13,72.20 L36.42,71.78 L36.14,71.78 L30.04,68.66 L29.76,68.37 L28.05,67.52 L27.77,67.24 L27.34,67.10 L27.06,66.81 L26.63,66.67 L26.35,66.39 L25.92,66.24 L25.64,65.96 L25.22,65.82 L24.93,65.54 L24.51,65.39 L24.22,65.11 L23.80,64.97 L23.51,64.68 L22.80,64.40 L22.52,64.12 L21.24,63.41 L21.67,64.12 L23.51,66.10 L23.51,66.24 L25.92,68.66 L26.07,68.66 L28.05,70.50 L28.19,70.50 L28.90,71.21 L30.61,72.49 L31.17,72.77 L31.60,73.20 L32.88,74.05 L33.30,74.19 L34.01,74.76 L34.44,74.90 L34.72,75.18 L36.42,76.03 L36.71,76.32 L38.13,77.03 L38.41,77.03 L39.69,77.74 L41.11,78.16 L41.53,78.45 L41.81,78.45 L44.51,79.44 L44.94,79.44 L45.08,79.58 L45.50,79.58 L45.65,79.72 L46.07,79.72 L46.21,79.86 L46.64,79.86 L47.35,80.15 L48.62,80.29 L48.77,80.43 L49.48,80.43 L49.62,80.57 L50.33,80.57 L50.47,80.72 L51.46,80.72 L51.60,80.86 L52.88,80.86 L53.02,81.00 L58.98,81.00 L59.12,80.86 L60.26,80.86 L60.40,80.72 L61.25,80.72 L61.39,80.57 L62.10,80.57 L62.81,80.29 L63.38,80.29 L63.95,80.01 L64.37,80.01 L64.51,79.86 L66.08,79.44 L68.49,78.30 L68.77,78.02 L69.91,77.45 L71.04,76.46 L71.18,76.46 L73.03,74.62 L75.01,71.64 L75.01,71.35 L75.58,70.36 L75.58,70.08 L76.15,68.66 L76.15,68.23 L76.43,67.52 L76.43,66.95 L76.57,66.81 L76.57,66.24 L76.72,66.10 L76.72,64.83 L76.86,64.68 L76.86,62.41 L76.72,62.27 L76.72,61.14 L76.57,61.00 L76.57,60.29 L76.43,60.14 L76.15,58.58 L76.01,58.44 L75.58,56.88 L73.88,53.33 L72.89,51.92 L72.74,51.49 L68.63,45.81 L68.06,45.25 L67.21,43.97 L65.79,42.27 L65.51,41.70 L63.81,39.43 L63.66,39.00 L62.53,37.30 L61.82,35.88 L61.82,35.60 L61.54,35.32 L61.11,33.90 L60.83,33.47 L60.83,33.05 L60.54,32.48 L60.40,31.34 L60.26,31.20 L60.26,29.07 L60.54,28.36 L61.11,27.65 L62.24,27.37 L62.39,27.51 L62.81,27.51 L63.24,27.80 L65.08,29.78 L65.22,29.78 L66.08,30.63 L66.93,31.20 L68.63,31.91 L68.91,31.91 L69.05,31.77 L68.91,31.63 L68.77,30.35 L68.63,30.21 L68.63,29.78 L68.35,29.07 L65.08,25.24 L65.37,24.96 L66.08,25.24 L67.07,25.24 L67.21,25.38 L70.33,25.53 L70.47,25.38 L71.32,25.38 L72.03,25.10 L72.32,24.82 L72.32,24.39 L71.75,23.82 L71.75,23.68 L69.91,21.98 L68.35,20.84 Z" fill="#fff" fill-rule="evenodd"/><circle cx="80" cy="72" r="4.3" fill="#BE6A7C"/></svg>